<svg id="Layer_1" data-name="Layer 1" xmlns="http://www.w3.org/2000/svg" xmlns:xlink="http://www.w3.org/1999/xlink" viewBox="0 0 831.95 713.14"><title>ModBucket</title><path d="M-47.61,307.76a26.69,26.69,0,0,0-4.38-7.3,28.48,28.48,0,0,0-7.63-5.94,35.36,35.36,0,0,0-11.66-3.93,48.82,48.82,0,0,0,19.74-28,31.74,31.74,0,0,0-.67-17.83,51.92,51.92,0,0,0-9.31-17.5,48.3,48.3,0,0,0-16.72-13A44.7,44.7,0,0,0-100,209.61a87,87,0,0,0-12.34.43h-.45a73.91,73.91,0,0,0-10.32,2q-27.83,7.19-38.59,27.61-7.85,15.69-1.79,28.48,6,12.59,20.86,11.45,18.84-1.35,28.72-12.12,8.3-9,6.73-17.94c-.45-3.59-1.95-5.08-4.49-4.5q-7.86,2-11.1-1.9t1.91-14A19.45,19.45,0,0,1-113,221.6a22.22,22.22,0,0,1,10.76-2.81c6.44-.14,10.1,1.57,11,5.16.45,1.8.22,4.27-.67,7.41q-7.41,19.29-20.19,47.79c-1.5,3.43-2.47,5.54-2.93,6.28q-6.72,15-9.19,19.53a20.79,20.79,0,0,0-1.46,2.45c-.83,1.49-1.45,2.66-1.91,3.48s-1.09,1.84-1.9,3a21.83,21.83,0,0,1-2.36,2.92,7.19,7.19,0,0,1-2.24,1.56,6.93,6.93,0,0,1-5.84-.33c-1.79-1-2.54-2.81-2.24-5.49a2.27,2.27,0,0,1,.9-1.58,1.44,1.44,0,0,1,1.79-.44,2.23,2.23,0,0,1,1.13,1.78,3.56,3.56,0,0,0,.44,2.25,2.26,2.26,0,0,0,2.47.89,6.2,6.2,0,0,0,2.24-1.34,14.25,14.25,0,0,0,5.17-9.42c.9-6.14-1.21-11.08-6.29-14.81A22.16,22.16,0,0,0-144,286.1a26.06,26.06,0,0,0-11.22.22,24.54,24.54,0,0,0-10.55,5.39q-9.87,8.52-10.77,24.12t8.75,24.57a38,38,0,0,0,22.89,9.32q13.45,1,23.11-7.31,6.51-6.27,12.79-21.53,4.71-11.43,9-23.34c.15-.58,3-.18,8.63,1.24a102.6,102.6,0,0,1,10,2.81q6.06,2.69,8.53,7.4,2.91,6-.67,13.67-5.4,11.93-18.18,17.74a30.29,30.29,0,0,1-12.12,3.14c-.3,0-1.08-.08-2.35-.22s-2.62-.34-4-.56a23.75,23.75,0,0,1-3.81-.9c-1.13-.38-1.61-.7-1.46-1l-.23,1.34a5.81,5.81,0,0,0,.12,3.38,20.65,20.65,0,0,0,1.68,4.15,13,13,0,0,0,4.6,4.36,29,29,0,0,0,8.86,3.6,66.81,66.81,0,0,0,15.15,1.79,54.42,54.42,0,0,0,15.47-2.36,31.4,31.4,0,0,0,14.37-9.41q6.39-7.08,9.53-18.29c.15-.61.3-1.34.45-2.25a44.88,44.88,0,0,0,.34-4.93,44.18,44.18,0,0,0-.34-7A31.37,31.37,0,0,0-47.61,307.76ZM-78,264.24A38.81,38.81,0,0,1-93.72,278q6.28-20,14.59-51.83a8.8,8.8,0,0,0,.44-2.69q9.21,7.63,8.08,20.42A41.92,41.92,0,0,1-78,264.24Z" transform="translate(222.29 353.67)"/><path d="M271.54,242.36h-7.07c-2.63,0-4.94,0-7-.12s-4.34-.12-7-.12h-7.06a27.75,27.75,0,0,0-.9-10.31,12.3,12.3,0,0,0-4.49-6.95,8.78,8.78,0,0,0-2-1.13A33,33,0,0,0,219,221.5c-2.69.29-3.37,1-2,2q6.94,5.18,5.38,18.17H207.81a25.41,25.41,0,0,0-15.25,4.49c-1.65,1-2.39,1.94-2.25,2.7s1.27,1.11,3.37,1.11q3.81.22,8.75.23c3.29,0,6.58,0,9.87.11s6.13.11,8.53.11c-.3,2.09-.53,3.44-.67,4a199.33,199.33,0,0,1-10.78,36.78c-1.41,3.67-2.54,6.74-3.52,9.5a35.73,35.73,0,0,1-4.55,4.87,20.59,20.59,0,0,1-5.16,3.36,16.84,16.84,0,0,1-2.92,1.11c-3.14,1.67-7,2.22-11.56,1.7s-7.66-2.52-9.3-6a12.65,12.65,0,0,1-1.13-6.28,18.79,18.79,0,0,1,.68-4.94,4.77,4.77,0,0,0,.45,1.58,8.76,8.76,0,0,0,1.45,2.36,11.9,11.9,0,0,0,2.47,2.24,13.41,13.41,0,0,0,3.48,1.68,12.67,12.67,0,0,0,4,.67c6.58-.15,11.33-1.78,14.25-4.94a26.8,26.8,0,0,0,6.17-12.56q2-8.07-2.36-13.91a15.4,15.4,0,0,0-11.56-6.39,26.3,26.3,0,0,0-13.68,2.58,40.86,40.86,0,0,0-11.22,7.85q-8.76,9.2-12.34,24c-.3,1.29-.37,2.43-.58,3.66A76.62,76.62,0,0,1,147,310.1v.24q-5.39,5.82-14.81,6.51h-.45a27,27,0,0,1-10.88-1.91,27.81,27.81,0,0,1-9.76-6.4c1.65,1.34,5.53.31,11.67-3.14s10.62-7.19,13.46-10.78a23.94,23.94,0,0,0,5.83-14.13,21.06,21.06,0,0,0-1.23-8.31,8.49,8.49,0,0,0-4.82-5.37h-.46c-2.84-1.05-6.36-.29-10.54,2.25a55.37,55.37,0,0,0-4.49,3.36,29.65,29.65,0,0,0-4.26,3.59c1.35-3.59,2.39-6.28,3.14-8.08,1-2.85,1.87-5.24,2.47-7.17.9-3,1.64-5.7,2.24-8.09.45-1.64.83-3.22,1.12-4.71s.3-3.21.46-4.7c0,.15.59-.23,1.79-1.14s2.43-1.87,3.7-2.91,2-1.65,2.13-1.79c2.54-3.89,3.6-7.25,3.14-10.11a9.64,9.64,0,0,0-4.71-6.72q-6.28-3.81-15.25.44a17,17,0,0,0-6.06,4.94,13.48,13.48,0,0,0-1.12,1.91l-2.47,4.6a9.61,9.61,0,0,1-1.57.23h-1.13q-24.66.22-53.84-15a66.94,66.94,0,0,0-22.66-7.51c-7.48-1-13.76-.55-18.85,1.23a23.62,23.62,0,0,0-11.89,8.87Q-7.34,226.41-6,234.73q2.93,17,22.67,19.52h8.52q-.45-2.92-.79-5.28A4.55,4.55,0,0,1,25.53,245a13.25,13.25,0,0,1,3.25-2.57,14.44,14.44,0,0,1,5-1.46,50.7,50.7,0,0,1,6.73-.45c2.32,0,5.09.16,8.3.45s6.51.67,9.88,1.11,7.14,1,11.32,1.58q20.64,3.59,34.33.9a15.29,15.29,0,0,1-.45,2.91c-.15,1.2-.45,2.81-.89,4.84s-.76,3.24-.9,3.69a169.84,169.84,0,0,1-6.28,24.45v.22c-1.36,4.05-2.77,8-4.27,11.89-.3.76-.67,1.7-1.12,2.81s-.86,2.22-1.23,3.25-.71,1.95-1,2.71-.36,1.31-.63,2.05c-.72.7-1.27,1.57-2,2.21A20.47,20.47,0,0,1,80.38,309c-.89.44-1.87.89-2.91,1.35q-4.71,2.24-11.56,1.46t-9.31-6a12.1,12.1,0,0,1-1.12-6.28,17.48,17.48,0,0,1,1.35-6.5,40.88,40.88,0,0,1,4.26-7.63q6.06-9.19,12.57-13,3.57-2,5.61-1.35a3,3,0,0,1,1.34,1.35c0,.6-.07,1.65-.23,3.14s-.22,2.85-.22,4,.08,2.57.22,4.15a21.43,21.43,0,0,0,.79,4.15,10.79,10.79,0,0,0,2,3.59,11.94,11.94,0,0,0,3.48,2.92c.15,0,.22-.08.22-.23a1.74,1.74,0,0,0,.23-.67,55.67,55.67,0,0,1,1.79-7.63,45,45,0,0,1,9.65-15.71Q88,263.23,86.22,265l-3.14,3.59a6.2,6.2,0,0,0-1.57-1.12,16.77,16.77,0,0,0-11-2.13A35.1,35.1,0,0,0,59,268.94a33.83,33.83,0,0,0-9.31,6.84q-8.76,9.2-12.34,24a52.9,52.9,0,0,0-.87,5.5,32.3,32.3,0,0,1-2.84,2.58,10.92,10.92,0,0,1-6.17,2.23c-2.84,0-4.64-.77-5.38-2.34a13.82,13.82,0,0,1-1.12-5.95,32.44,32.44,0,0,1,1.35-8.64c.89-3.21,1.87-6.4,2.91-9.54q2-4.92,3.37-8.29c1-2.4,1.71-3.89,2-4.5.45-1.2-.31-2.38-2.25-3.58s-4.71-1.8-8.3-1.8c-.45,0-1.27.53-2.46,1.58,0,.15-.16.29-.46.44a2.42,2.42,0,0,1-.44.67c-.75.91-1.65,2.1-2.7,3.59-1.34,2.11-2.77,4.42-4.26,7a.7.7,0,0,1-.22.45q-18.18,26.72-25.36,27.59-1.56-4.25,2.25-16.37A95.65,95.65,0,0,1-9.36,278.7c1.35-2.84,1.2-5.31-.45-7.39a14.81,14.81,0,0,0-7-4.74,27.45,27.45,0,0,0-8.08-1.34h-4.71c-7.48-.73-11.3.23-11.44,2.92,0,2,1.42,3.74,4.26,5.39q3.81,2,4.49,8.75A63.34,63.34,0,0,1-35.61,298c-.75,1.95-1.34,3.45-1.8,4.49q-4.92,14.37-.55,24.8t13.57,10.65h2q10.31-1.79,20.64-25.58c.59-1.05,1-1.78,1.34-2.25A30.22,30.22,0,0,0-3.3,320.65,15,15,0,0,0-2.18,326v.67A18.16,18.16,0,0,0,.51,332.1a16.15,16.15,0,0,0,5.38,4.48,18,18,0,0,0,8.54,1.8,22.05,22.05,0,0,0,11.32-2.92A39.33,39.33,0,0,0,35,328.07c1.3-1.42,2.24-3.08,3.38-4.6a22.92,22.92,0,0,0,2.78,4.8,25.45,25.45,0,0,0,10.33,7.86,27.89,27.89,0,0,0,13,2.25,31.32,31.32,0,0,0,15.71-6.51,42.39,42.39,0,0,0,5.29-5.06A24.78,24.78,0,0,0,88,332.32a29.68,29.68,0,0,0,4,4.48A15.14,15.14,0,0,0,95,337.93a12.27,12.27,0,0,0,4.93.33c1.49-.22,2.32-.62,2.47-1.22a98.11,98.11,0,0,1,.45-15.94,118.07,118.07,0,0,1,2.24-13.23,3.67,3.67,0,0,1,.23,1.79q3.13,24.24,16.38,28a2.46,2.46,0,0,0,1.12.22,1.86,1.86,0,0,0,.89.22,10.74,10.74,0,0,0,2.25.23h1.79a22.69,22.69,0,0,0,11-2.8,37.44,37.44,0,0,0,9.2-7.07,54.55,54.55,0,0,0,5.4-7.16,23,23,0,0,0,3.57,6.72,24.72,24.72,0,0,0,10.32,8.06,25.76,25.76,0,0,0,13,2,29.59,29.59,0,0,0,15.7-6.28,44.48,44.48,0,0,0,7.28-7.45,21.33,21.33,0,0,0,2.82,6.34q4.26,6.5,10.66,7.5A18.5,18.5,0,0,0,229,335.91a52.09,52.09,0,0,0,11-8.31,48,48,0,0,0,8-9.86c.45-.74.82-1.42,1.13-2,1.34-2.69,2.61-5.37,3.81-8.06a71.79,71.79,0,0,0,2.92-8.3,24.36,24.36,0,0,0,.89-4.26,8.18,8.18,0,0,0-1.23-4.72c-.83-1.2-1.53-1.27-2.13-.22a24.73,24.73,0,0,1-2.92,4.94c-1.49,2.08-3.14,4.26-4.93,6.5l-3.59,3.57c-.9.76-1.72,1.44-2.47,2-2.25,1.65-4.26,2.46-6.06,2.46q-6.28,0-6.95-7a19.14,19.14,0,0,1,.89-7.62A202.81,202.81,0,0,1,234.74,273a194.39,194.39,0,0,0,7.4-22.32c6.88.15,12,.24,15.26.24a24.76,24.76,0,0,0,15.25-4.5c1.65-1,2.4-2,2.24-2.81S273.62,242.36,271.54,242.36ZM191,271.51q5.38-2.24,5.6,2A27,27,0,0,1,194,284.31c-1.73,3.88-4.23,6-7.52,6.28-2.84.3-5.09-.12-6.73-1.23A5.1,5.1,0,0,1,177.3,285Q184,274.68,191,271.51Zm-83,28.05a2.5,2.5,0,0,1-.22-1.11,7.34,7.34,0,0,0,.44-1.35,25.47,25.47,0,0,1,2.7-4.94,27.23,27.23,0,0,1,4.93-6.06q6.74-6.72,11.89-7.17a2,2,0,0,1,2.47,1.56q2,5.16-6.28,12.57a29.57,29.57,0,0,1-11,6.06,28.27,28.27,0,0,1-2.91.67C109,299.94,108.27,299.88,108,299.56Z" transform="translate(222.29 353.67)"/><path d="M-112.94,172.53c-1-.11-2.22-.23-3.68-.35-1.23-.11-2.73-.2-4.51-.26s-3.79-.09-6-.09q-6.48,0-15.42.62t-19.9,2.36a280,280,0,0,0,6.44-38.3q1.8-18.75,1.8-36.1,0-15.78-1.23-29.67t-3.24-25.64A153.83,153.83,0,0,0-143,47.21q7,.52,12.05.52,3.51,0,6.18-.17c1.78-.12,3.26-.24,4.43-.35,1.4-.18,2.6-.35,3.59-.53q3,17.18,7.45,34a322.06,322.06,0,0,0,11,33.7,279.53,279.53,0,0,0,8.77-34.22,286.6,286.6,0,0,0,4.38-35l.7,1.58-.7-1.58a152.08,152.08,0,0,0,15.95,2.11q7.19.52,12.71.52,3.67,0,6.48-.17c1.87-.12,3.48-.24,4.82-.35,1.52-.18,2.84-.35,4-.53A168.45,168.45,0,0,0-44,67.41q-1,12-1,25.63,0,9.74.53,20t1.62,20.51q1.1,10.2,2.85,20.11t4.2,18.84c-1.17-.11-2.51-.23-4-.35-1.34-.11-2.92-.2-4.73-.26s-3.92-.09-6.31-.09q-6.84,0-16.08.62t-20.21,2.36a46.66,46.66,0,0,0,3.64-11.21c1-4.56,1.75-9.41,2.37-14.55s1.08-10.27,1.4-15.38S-79.14,124-79,120q-2.55,5.43-4.91,11t-4.86,12q-2.5,6.34-5.22,13.71t-6,16.39q-3.33-9-6-16.39T-111.14,143q-2.42-6.31-4.74-12c-1.54-3.77-3.14-7.53-4.77-11.27q.78,13.86,2.63,27.3A202.22,202.22,0,0,0-112.94,172.53Z" transform="translate(222.29 353.67)"/><path d="M66.28,122.42c0-.17,0-.38,0-.54a79.37,79.37,0,0,0-1-12.1c-.14-.9-.49-1.73-.67-2.62l16.74-3.54a77.24,77.24,0,0,0-3-10.44,75.15,75.15,0,0,0-5.67-12.07L58.3,89.55c-.48-.89-.79-1.87-1.32-2.73a38,38,0,0,0-7.75-9,38.49,38.49,0,0,0-3.37-2L54,62a53.42,53.42,0,0,0-7.8-3.74,52,52,0,0,0-18.34-3.21l0,14.6c-.78,0-1.48-.18-2.29-.18a38.86,38.86,0,0,0-17.12,3.8L1.26,61.52A57.22,57.22,0,0,0-17.32,78.25l-.27.36,10.75,7.25L-7,86a52.78,52.78,0,0,0-8,17c-.11.41-.14.82-.25,1.23L-27.72,101a87.58,87.58,0,0,0-2.79,21.94v1.36l12.93-.58c0,3.37.19,6.84.58,10.56a74.12,74.12,0,0,0,1.83,9.39l-12.91,2.94c.35,1.59.76,3.17,1.21,4.72A74.4,74.4,0,0,0-20.93,166c.6,1.11,1.24,2.21,1.92,3.29l11.82-7.47a36.41,36.41,0,0,0,4.93,6.39,34.66,34.66,0,0,0,10,6.26L1.21,187.58c1.35.67,2.76,1.3,4.17,1.87A56.06,56.06,0,0,0,25.91,193h.79l-.42-15.71a37.33,37.33,0,0,0,12.6-2.51,39.25,39.25,0,0,0,5.66-2.95l8.13,14.39A50.52,50.52,0,0,0,62.46,179a56.15,56.15,0,0,0,9.3-11.59L57,158.5c.25-.43.65-.73.89-1.17a62.79,62.79,0,0,0,5-12c.42-1.41.56-2.79.9-4.19l16.86,4.05a94.1,94.1,0,0,0,1.8-9.66,103.66,103.66,0,0,0,.91-13.1Zm-31,9.36a34.34,34.34,0,0,1-1.84,7.49,18.26,18.26,0,0,1-3.55,6,7.22,7.22,0,0,1-5.56,2.45,6.91,6.91,0,0,1-5.66-2.67,20.17,20.17,0,0,1-3.37-6.44,39.07,39.07,0,0,1-1.67-7.89,68.22,68.22,0,0,1-.43-7q0-2,.21-5c.15-2,.38-4,.71-6.14a63.74,63.74,0,0,1,1.31-6.4,30.35,30.35,0,0,1,2.1-5.74,13.9,13.9,0,0,1,3-4.12,6,6,0,0,1,4.12-1.57,6.05,6.05,0,0,1,4.25,1.66,13.71,13.71,0,0,1,3,4.3,28.54,28.54,0,0,1,2,6c.5,2.22.89,4.44,1.19,6.66s.48,4.33.57,6.35.13,3.7.13,5A53.92,53.92,0,0,1,35.29,131.78Z" transform="translate(222.29 353.67)"/><path d="M180.29,174.29c-1.35-.12-2.87-.24-4.56-.35q-2.19-.18-5.13-.27c-2,0-4.1-.08-6.44-.08-3.33,0-6.87.11-10.6.35a101.15,101.15,0,0,0-11.13,1.31,19.41,19.41,0,0,0,1.13-4.38q.62-3.33,1.19-7.36t1.05-8q.48-3.94.74-6.13a55.74,55.74,0,0,1-3.9,12,38.31,38.31,0,0,1-5.82,9.2,25,25,0,0,1-7.45,5.92,18.87,18.87,0,0,1-8.68,2.1c-1.4,0-3.13-.09-5.17-.26a21.38,21.38,0,0,1-6.53-1.75,25.58,25.58,0,0,1-6.92-4.61,28.24,28.24,0,0,1-6.23-8.76,59,59,0,0,1-4.47-14.33,111.81,111.81,0,0,1-1.7-21.21,104.15,104.15,0,0,1,1.53-18.8,73.71,73.71,0,0,1,4.12-14.59,45,45,0,0,1,6.05-10.74,37.58,37.58,0,0,1,7.27-7.23,27,27,0,0,1,7.8-4.07A25.12,25.12,0,0,1,124.11,71a19.5,19.5,0,0,1,7.45,1.36,24.58,24.58,0,0,1,6,3.5,25,25,0,0,1,4.74,4.91,50.57,50.57,0,0,1,3.5,5.48q-.17-4-.35-8.77c-.11-3.15-.26-6.34-.44-9.55s-.39-6.38-.65-9.51-.56-6-.88-8.72-.69-5-1.09-7.1A19.16,19.16,0,0,0,141,37.92a130,130,0,0,0,13.06,1.66q6,.44,11,.44c2.1,0,4,0,5.69-.13s3.13-.19,4.3-.31c1.4-.11,2.63-.26,3.68-.44A114.2,114.2,0,0,0,177,50.58q-.79,7.06-1.36,15.91t-.88,19q-.3,10.13-.31,20.64,0,9.74.31,19.37t1,18.54q.71,8.9,1.84,16.65A119.13,119.13,0,0,0,180.29,174.29Zm-36-50.22v-14.2a44.08,44.08,0,0,0-.27-4.82,14.27,14.27,0,0,0-1.18-4.47,8.19,8.19,0,0,0-2.67-3.29A8,8,0,0,0,135.41,96a4.65,4.65,0,0,0-3.59,1.67,13.17,13.17,0,0,0-2.45,4.29,36.54,36.54,0,0,0-1.58,5.88,62.58,62.58,0,0,0-.88,6.44q-.25,3.2-.35,6c-.06,1.84-.09,3.28-.09,4.33,0,1.58.08,3.52.22,5.83a38.57,38.57,0,0,0,1,6.66,16,16,0,0,0,2.41,5.48,5.15,5.15,0,0,0,4.43,2.28,6.43,6.43,0,0,0,5.08-2.19,14.75,14.75,0,0,0,2.94-5.43,34.86,34.86,0,0,0,1.36-6.8Q144.27,126.88,144.27,124.07Z" transform="translate(222.29 353.67)"/><path d="M-172.77-211c-1-.12-2.22-.23-3.68-.35-1.23-.12-2.73-.2-4.51-.26s-3.79-.09-6-.09q-6.48,0-15.42.61t-19.9,2.37a280.26,280.26,0,0,0,6.44-38.3q1.8-18.75,1.8-36.11,0-15.78-1.23-29.66t-3.24-25.64a156.42,156.42,0,0,0,15.73,2.1q7,.52,12,.53,3.51,0,6.18-.18c1.78-.11,3.26-.23,4.43-.35,1.4-.17,2.6-.35,3.59-.52q3,17.18,7.45,34a322.06,322.06,0,0,0,11,33.7,279.67,279.67,0,0,0,8.77-34.23,286.19,286.19,0,0,0,4.38-35l.7,1.58-.7-1.58a154.57,154.57,0,0,0,16,2.1q7.18.52,12.71.53c2.45,0,4.62-.06,6.48-.18s3.48-.23,4.83-.35c1.51-.17,2.83-.35,3.94-.52a168.53,168.53,0,0,0-2.81,20.72q-1,12-1,25.64,0,9.74.53,20t1.62,20.5q1.1,10.22,2.85,20.12t4.2,18.84c-1.17-.12-2.51-.23-4-.35-1.34-.12-2.92-.2-4.73-.26s-3.92-.09-6.31-.09q-6.84,0-16.08.61t-20.21,2.37a46.61,46.61,0,0,0,3.64-11.22c1-4.56,1.75-9.41,2.37-14.55s1.08-10.27,1.4-15.38.54-9.68.66-13.71q-2.55,5.43-4.91,11t-4.86,12q-2.5,6.36-5.22,13.72t-6,16.39q-3.33-9-6-16.39T-171-240.53q-2.42-6.32-4.74-12c-1.54-3.77-3.14-7.52-4.77-11.26q.78,13.84,2.63,27.3A202.22,202.22,0,0,0-172.77-211Z" transform="translate(222.29 353.67)"/><path d="M6.45-261.12c0-.16,0-.37,0-.54a79.34,79.34,0,0,0-1-12.09c-.14-.91-.49-1.73-.67-2.62l16.74-3.54a77.79,77.79,0,0,0-3-10.45,76.28,76.28,0,0,0-5.66-12.06L-1.53-294c-.48-.88-.79-1.86-1.32-2.72a37.81,37.81,0,0,0-7.75-9,34,34,0,0,0-3.37-2l8.17-13.83a51.94,51.94,0,0,0-7.8-3.74,51.81,51.81,0,0,0-18.34-3.21l0,14.6c-.78,0-1.48-.19-2.29-.19a38.73,38.73,0,0,0-17.12,3.81L-58.57-322a57.19,57.19,0,0,0-18.58,16.72l-.27.37,10.75,7.25c0,.06-.11.1-.16.17a52.45,52.45,0,0,0-8,17c-.12.4-.15.82-.26,1.23l-12.45-3.22a87.52,87.52,0,0,0-2.79,21.94v1.36l12.93-.59c0,3.37.19,6.85.58,10.57A74.47,74.47,0,0,0-75-239.86l-12.91,2.93c.35,1.6.76,3.17,1.21,4.72a74.49,74.49,0,0,0,5.93,14.67c.6,1.11,1.24,2.2,1.92,3.28L-67-221.72a36.34,36.34,0,0,0,4.93,6.38,34.69,34.69,0,0,0,10,6.27l-6.51,13.12c1.35.67,2.76,1.3,4.17,1.87a56.27,56.27,0,0,0,20.53,3.57h.79l-.42-15.7a37.83,37.83,0,0,0,12.6-2.51,38.31,38.31,0,0,0,5.66-3l8.13,14.4a50.57,50.57,0,0,0,9.79-7.25,55.83,55.83,0,0,0,9.3-11.58L-2.82-225c.25-.43.65-.73.89-1.18a62.44,62.44,0,0,0,5-12c.42-1.41.56-2.8.9-4.2l16.86,4a93.42,93.42,0,0,0,1.8-9.65,103.81,103.81,0,0,0,.91-13.11Zm-31,9.37a34.48,34.48,0,0,1-1.84,7.49,18.11,18.11,0,0,1-3.55,6,7.2,7.2,0,0,1-5.56,2.46,6.89,6.89,0,0,1-5.66-2.68,20.07,20.07,0,0,1-3.37-6.44,39,39,0,0,1-1.67-7.88,68.39,68.39,0,0,1-.43-7q0-2,.21-4.95c.15-2,.38-4,.71-6.13a63.17,63.17,0,0,1,1.31-6.4,30.1,30.1,0,0,1,2.1-5.74,13.65,13.65,0,0,1,3-4.12,6,6,0,0,1,4.12-1.58,6.06,6.06,0,0,1,4.25,1.67,13.61,13.61,0,0,1,3,4.29,28.74,28.74,0,0,1,2,6c.5,2.22.89,4.44,1.19,6.66s.48,4.34.57,6.36.13,3.69.13,5A53.92,53.92,0,0,1-24.54-251.75Z" transform="translate(222.29 353.67)"/><path d="M120.46-209.25l-4.56-.35c-1.46-.11-3.17-.2-5.13-.26s-4.1-.09-6.44-.09q-5,0-10.6.35a101.17,101.17,0,0,0-11.13,1.32,19.41,19.41,0,0,0,1.13-4.38c.41-2.23.81-4.68,1.19-7.37s.73-5.34,1-8,.57-4.68.74-6.14a55.83,55.83,0,0,1-3.9,12A38.31,38.31,0,0,1,77-213a25,25,0,0,1-7.45,5.91,18.76,18.76,0,0,1-8.68,2.11c-1.4,0-3.13-.09-5.17-.27A20.83,20.83,0,0,1,49.16-207a25.53,25.53,0,0,1-6.92-4.6A28.24,28.24,0,0,1,36-220.33a59.1,59.1,0,0,1-4.47-14.33,112.79,112.79,0,0,1-1.7-21.21,104.15,104.15,0,0,1,1.53-18.8,73.51,73.51,0,0,1,4.12-14.59,44.83,44.83,0,0,1,6-10.74,37.58,37.58,0,0,1,7.27-7.23,27.07,27.07,0,0,1,7.8-4.08,25.43,25.43,0,0,1,7.67-1.27,19.69,19.69,0,0,1,7.45,1.36,25.19,25.19,0,0,1,6,3.51,25.28,25.28,0,0,1,4.73,4.91,50.47,50.47,0,0,1,3.5,5.47c-.11-2.68-.23-5.61-.35-8.76s-.26-6.34-.44-9.55-.39-6.39-.65-9.51-.56-6-.88-8.72S83-338.93,82.6-341a19.26,19.26,0,0,0-1.41-4.65,130.23,130.23,0,0,0,13.06,1.67q6,.43,11,.44c2.1,0,4-.05,5.69-.13s3.13-.19,4.3-.31c1.4-.12,2.63-.26,3.68-.44a113.28,113.28,0,0,0-1.75,11.44q-.8,7.05-1.36,15.9t-.88,19q-.3,10.13-.31,20.64,0,9.72.31,19.37t1,18.53q.7,8.9,1.84,16.66A118.49,118.49,0,0,0,120.46-209.25Zm-36-50.22v-14.19a43.94,43.94,0,0,0-.27-4.82A14.27,14.27,0,0,0,83-282.95a8.12,8.12,0,0,0-2.67-3.29,7.91,7.91,0,0,0-4.74-1.27A4.64,4.64,0,0,0,72-285.85a13.22,13.22,0,0,0-2.45,4.3A36.41,36.41,0,0,0,68-275.68a63,63,0,0,0-.88,6.44c-.17,2.14-.29,4.12-.35,6s-.09,3.29-.09,4.34c0,1.58.08,3.52.22,5.83a38.57,38.57,0,0,0,1,6.66A16.06,16.06,0,0,0,70.28-241a5.15,5.15,0,0,0,4.43,2.28,6.41,6.41,0,0,0,5.08-2.2,14.75,14.75,0,0,0,2.94-5.43,34.61,34.61,0,0,0,1.36-6.79Q84.43-256.66,84.44-259.47Z" transform="translate(222.29 353.67)"/><path d="M242.83-263A35,35,0,0,1,254.49-259a28.64,28.64,0,0,1,7.63,5.94,26.63,26.63,0,0,1,4.38,7.29,32.66,32.66,0,0,1,2.13,7.52,43.08,43.08,0,0,1,.33,7,48.27,48.27,0,0,1-.33,4.93c-.15.9-.31,1.66-.45,2.24q-3.15,11.22-9.54,18.29a31.21,31.21,0,0,1-14.36,9.43,54.49,54.49,0,0,1-15.48,2.36,65.7,65.7,0,0,1-15.14-1.8,29.94,29.94,0,0,1-8.86-3.59,12.74,12.74,0,0,1-4.6-4.39,19,19,0,0,1-1.68-4.15,5.71,5.71,0,0,1-.12-3.35l.23-1.35c-.16.29.33.64,1.46,1a24.37,24.37,0,0,0,3.81.89c1.42.23,2.77.42,4,.57s2.05.22,2.35.22a30.46,30.46,0,0,0,12.12-3.14q12.79-5.84,18.17-17.72,3.58-7.62.68-13.69-2.49-4.71-8.54-7.4c-1-.45-4.37-1.37-10-2.81s-8.49-1.84-8.63-1.22q-4.28,11.87-9,23.32-6.28,15.27-12.79,21.55-9.65,8.28-23.1,7.27a37.89,37.89,0,0,1-22.89-9.3q-9.66-9-8.75-24.57t10.77-24.12a24.44,24.44,0,0,1,10.55-5.37,25.71,25.71,0,0,1,11.21-.24,22.06,22.06,0,0,1,9.64,3.82q7.64,5.61,6.29,14.81a14.24,14.24,0,0,1-5.16,9.42,6,6,0,0,1-2.24,1.34,2.26,2.26,0,0,1-2.47-.89,3.56,3.56,0,0,1-.45-2.25,2.25,2.25,0,0,0-1.12-1.79,1.47,1.47,0,0,0-1.8.45,2.41,2.41,0,0,0-.9,1.56c-.3,2.7.46,4.53,2.25,5.51a6.88,6.88,0,0,0,5.83.34,6.6,6.6,0,0,0,2.24-1.58,19.3,19.3,0,0,0,2.36-2.92c.82-1.19,1.46-2.19,1.91-3s1.08-2,1.9-3.49a20.35,20.35,0,0,1,1.47-2.47q2.46-4.47,9.19-19.52.68-1.11,2.92-6.28,12.8-28.48,20.2-47.79c.89-3.14,1.11-5.61.67-7.39q-1.35-5.4-11-5.17a22.24,22.24,0,0,0-10.77,2.8,19.56,19.56,0,0,0-7.85,7.51q-5.16,10.13-1.9,14t11.1,1.91c2.54-.59,4,.9,4.49,4.49q1.56,9-6.73,17.95-9.88,10.75-28.72,12.11-14.82,1.14-20.87-11.44-6.06-12.76,1.8-28.5Q163.18-334.29,191-341.5a75.83,75.83,0,0,1,10.33-2h.45a85.62,85.62,0,0,1,12.34-.46,45,45,0,0,1,21.76,4.61,48,48,0,0,1,16.71,13,51.93,51.93,0,0,1,9.31,17.5,31.75,31.75,0,0,1,.68,17.83A48.82,48.82,0,0,1,242.83-263ZM235-327.36q-8.29,31.86-14.58,51.83a38.77,38.77,0,0,0,15.7-13.81,41.62,41.62,0,0,0,7.41-20.3q1.11-12.8-8.08-20.42A8.4,8.4,0,0,1,235-327.36Z" transform="translate(222.29 353.67)"/><path d="M606.05-318.78h-7.53c-2.79,0-5.27,0-7.42-.12s-4.63-.12-7.42-.12h-7.54a29.51,29.51,0,0,0-1-11,13.26,13.26,0,0,0-4.78-7.42,9.73,9.73,0,0,0-2.16-1.18,35,35,0,0,0-18.18-2.4c-2.88.32-3.59,1-2.16,2.15,5,3.68,6.86,10.13,5.75,19.4H538.09a27,27,0,0,0-16.27,4.77c-1.76,1.13-2.55,2.09-2.4,2.88s1.36,1.2,3.59,1.2c2.72.16,5.83.23,9.34.23s7,0,10.53.12,6.54.11,9.09.11c-.32,2.25-.56,3.69-.71,4.33a213.52,213.52,0,0,1-11.49,39.23c-1.51,3.93-2.72,7.21-3.77,10.15a37.2,37.2,0,0,1-4.84,5.17,21.26,21.26,0,0,1-5.51,3.58,15.81,15.81,0,0,1-3.11,1.2q-5,2.65-12.32,1.81T500.29-251a13.6,13.6,0,0,1-1.2-6.72,20.17,20.17,0,0,1,.71-5.25,5.69,5.69,0,0,0,.49,1.68,9.46,9.46,0,0,0,1.55,2.51,12.36,12.36,0,0,0,2.63,2.38,14.24,14.24,0,0,0,3.71,1.81,13.81,13.81,0,0,0,4.31.72q10.53-.26,15.2-5.28t6.58-13.39q2.15-8.61-2.51-14.84a16.39,16.39,0,0,0-12.33-6.82,28.11,28.11,0,0,0-14.6,2.74,43.57,43.57,0,0,0-12,8.39q-9.35,9.81-13.16,25.6c-.33,1.38-.4,2.59-.62,3.9a85,85,0,0,1-5.85,7.1v.25q-5.75,6.22-15.79,6.94H457a28.51,28.51,0,0,1-11.61-2A29.91,29.91,0,0,1,435-248.17q2.63,2.14,12.44-3.36,9.83-5.75,14.36-11.48A25.62,25.62,0,0,0,468-278.09a22.22,22.22,0,0,0-1.32-8.85,9.12,9.12,0,0,0-5.14-5.76H461c-3-1.11-6.79-.3-11.25,2.4q-2.16,1.44-4.78,3.59a31.15,31.15,0,0,0-4.55,3.83c1.44-3.83,2.55-6.69,3.35-8.62,1.11-3,2-5.58,2.63-7.65q1.43-4.78,2.39-8.62.72-2.62,1.2-5c.15-1.76.32-3.42.48-5,0,.16.63-.23,1.91-1.2s2.59-2,3.95-3.09,2.11-1.76,2.27-1.93q4.08-6.22,3.35-10.77a10.21,10.21,0,0,0-5-7.17q-6.71-4.08-16.27.47a18.31,18.31,0,0,0-6.47,5.26,14.37,14.37,0,0,0-1.19,2l-2.63,4.91a9.91,9.91,0,0,1-1.68.23h-1.19q-26.32.24-57.44-16a71.75,71.75,0,0,0-24.17-8q-12-1.58-20.11,1.31a25,25,0,0,0-12.68,9.46q-4.54,6.58-3.12,15.43,3.14,18.2,24.18,20.82h9.09c-.31-2.07-.6-4-.83-5.62a4.83,4.83,0,0,1,1.19-4.18,13.84,13.84,0,0,1,3.48-2.76,15.56,15.56,0,0,1,5.38-1.57,52.3,52.3,0,0,1,7.18-.46c2.47,0,5.42.14,8.85.46s6.95.74,10.53,1.2,7.62,1,12.09,1.68q22,3.84,36.61.95a17.24,17.24,0,0,1-.47,3.13c-.16,1.27-.49,3-1,5.14s-.8,3.48-1,3.94a179.47,179.47,0,0,1-6.7,26.09v.23q-2.15,6.5-4.54,12.68c-.33.82-.73,1.81-1.2,3s-.92,2.35-1.32,3.46-.76,2.08-1.08,2.88-.54,1.55-.83,2.35c-.72.69-1.27,1.56-2,2.19a21.21,21.21,0,0,1-5.5,3.58c-1,.5-2,1-3.11,1.45-3.35,1.59-7.46,2.12-12.32,1.56s-8.18-2.67-9.94-6.34a13.09,13.09,0,0,1-1.2-6.72,18.78,18.78,0,0,1,1.44-6.92,43.39,43.39,0,0,1,4.55-8.15Q388-282.64,395-286.71c2.54-1.43,4.54-1.91,6-1.43a3.14,3.14,0,0,1,1.43,1.43c0,.65-.08,1.76-.24,3.36s-.24,3-.24,4.3.08,2.76.24,4.44a21.61,21.61,0,0,0,.84,4.41,11.54,11.54,0,0,0,2.15,3.84,12.62,12.62,0,0,0,3.71,3.11.21.21,0,0,0,.24-.23,1.83,1.83,0,0,0,.24-.73,59.47,59.47,0,0,1,1.92-8.14,48,48,0,0,1,10.29-16.75q-11.25-7.41-13.16-5.49c-1.13,1.27-2.24,2.54-3.36,3.82a6.77,6.77,0,0,0-1.67-1.2,17.91,17.91,0,0,0-11.73-2.27,37.7,37.7,0,0,0-12.33,3.82,36.43,36.43,0,0,0-9.93,7.31q-9.33,9.81-13.16,25.6c-.48,2.07-.67,3.95-.93,5.88a36.2,36.2,0,0,1-3,2.74,11.79,11.79,0,0,1-6.58,2.38c-3,0-4.95-.82-5.75-2.51a14.63,14.63,0,0,1-1.2-6.34,34.52,34.52,0,0,1,1.44-9.2c1-3.44,2-6.84,3.11-10.17q2.16-5.28,3.59-8.87c1.12-2.55,1.83-4.14,2.15-4.77.48-1.29-.32-2.56-2.39-3.83s-5-1.93-8.86-1.93c-.47,0-1.35.56-2.62,1.68,0,.16-.17.32-.49.48a2.88,2.88,0,0,1-.47.72c-.8.95-1.76,2.24-2.87,3.83-1.44,2.23-3,4.72-4.55,7.42a.69.69,0,0,1-.24.48q-19.38,28.49-27,29.43c-1.12-3-.33-8.86,2.39-17.47A104.4,104.4,0,0,1,306.44-280q2.15-4.54-.48-7.9a15.78,15.78,0,0,0-7.42-5,28.56,28.56,0,0,0-8.61-1.43h-5c-8-.79-12,.23-12.21,3.11,0,2.07,1.52,4,4.55,5.74,2.71,1.43,4.31,4.56,4.78,9.33a67.55,67.55,0,0,1-3.58,16.76c-.8,2.07-1.44,3.68-1.92,4.79q-5.25,15.3-.6,26.44t14.48,11.36h2.15q11-1.9,22-27.28c.64-1.11,1.11-1.9,1.44-2.4a32.06,32.06,0,0,0-3.11,11.25,16.2,16.2,0,0,0,1.19,5.75v.72A19.11,19.11,0,0,0,317-223a16.91,16.91,0,0,0,5.74,4.79,19,19,0,0,0,9.09,1.91,23.67,23.67,0,0,0,12.09-3.11,41.91,41.91,0,0,0,9.81-7.88c1.39-1.51,2.39-3.29,3.61-4.91a24.56,24.56,0,0,0,3,5.14,27.35,27.35,0,0,0,11,8.37,29.68,29.68,0,0,0,13.88,2.39,33.3,33.3,0,0,0,16.75-6.93,46,46,0,0,0,5.65-5.41,25.45,25.45,0,0,0,2.73,5.87,31.33,31.33,0,0,0,4.31,4.79,17.17,17.17,0,0,0,3.11,1.2,13.65,13.65,0,0,0,5.27.37c1.59-.25,2.47-.69,2.63-1.33a103.11,103.11,0,0,1,.48-17,124.23,124.23,0,0,1,2.39-14.13,4,4,0,0,1,.24,1.91q3.34,25.86,17.47,29.92a2.66,2.66,0,0,0,1.19.23,1.92,1.92,0,0,0,1,.24,11.43,11.43,0,0,0,2.4.24h1.91a24.14,24.14,0,0,0,11.73-3,38.91,38.91,0,0,0,9.81-7.54,57.21,57.21,0,0,0,5.76-7.64,24.61,24.61,0,0,0,3.81,7.18,26.59,26.59,0,0,0,11,8.6,27.6,27.6,0,0,0,13.88,2.15,31.67,31.67,0,0,0,16.75-6.69,48.12,48.12,0,0,0,7.76-7.95,23.1,23.1,0,0,0,3,6.75q4.55,6.94,11.37,8A19.92,19.92,0,0,0,560.71-219a57.12,57.12,0,0,0,11.73-8.87,51.92,51.92,0,0,0,8.49-10.52q.72-1.2,1.2-2.16,2.14-4.29,4.07-8.62a76.3,76.3,0,0,0,3.11-8.85,25.72,25.72,0,0,0,1-4.54,8.75,8.75,0,0,0-1.31-5c-.88-1.27-1.64-1.36-2.28-.25a25.27,25.27,0,0,1-3.11,5.28q-2.38,3.34-5.27,6.94l-3.82,3.82c-1,.81-1.84,1.52-2.63,2.16-2.4,1.76-4.55,2.63-6.47,2.63-4.47,0-6.93-2.48-7.42-7.42-.32-1.91,0-4.61,1-8.13q1.92-7.92,7.9-23.58t7.9-23.81q11,.24,16.27.25a26.54,26.54,0,0,0,16.27-4.79c1.76-1.11,2.55-2.12,2.4-3S608.29-318.78,606.05-318.78Zm-85.91,31.11c3.84-1.58,5.83-.88,6,2.16A28.67,28.67,0,0,1,523.38-274c-1.84,4.15-4.51,6.4-8,6.72-3,.32-5.43-.13-7.18-1.33a5.43,5.43,0,0,1-2.63-4.66Q512.73-284.29,520.14-287.67ZM431.6-257.76a2.54,2.54,0,0,1-.24-1.19,7,7,0,0,0,.48-1.44,28,28,0,0,1,2.88-5.25A28.6,28.6,0,0,1,440-272.1q7.2-7.18,12.69-7.65a2.11,2.11,0,0,1,2.64,1.66q2.15,5.52-6.71,13.41a31.83,31.83,0,0,1-11.72,6.46,28.14,28.14,0,0,1-3.11.71C432.63-257.35,431.92-257.43,431.6-257.76Z" transform="translate(222.29 353.67)"/><image width="420" height="420" transform="translate(395.95 275.67)" xlink:href="v2.png"/></svg>